Coordinates
version=1
nRows=12
nColumns=32
inDegrees=yes

Units are S.I. units (second, meters, Newtons, ...)
If the header above contains a line with 'inDegrees', this indicates whether rotational values are in degrees (yes) or radians (no).

endheader
time	pelvis_tilt	pelvis_list	pelvis_rotation	pelvis_tx	pelvis_ty	pelvis_tz	hip_flexion_r	hip_adduction_r	hip_rotation_r	knee_angle_r	knee_adduction_r	med_cond_adduction_r	lat_cond_adduction_r	patella_r_constrained_knee_angle	ankle_angle_r	subtalar_angle_r	mtp_angle_r	hip_flexion_l	hip_adduction_l	hip_rotation_l	knee_angle_l	knee_adduction_l	med_cond_adduction_l	lat_cond_adduction_l	patella_l_constrained_knee_angle	ankle_angle_l	subtalar_angle_l	mtp_angle_l	lumbar_extension	lumbar_bending	lumbar_rotation
      0.07000000	     -0.28073659	      8.84473722	      6.55726187	     -0.50899320	      0.90232721	      0.18469131	     28.49516513	    -17.76695453	    -14.26467196	    -12.03601729	      4.68423376	     -0.00000000	     -0.00000000	     -0.21006813	     -0.82442062	      4.30761701	     -0.00000000	    -21.25604265	      6.51781875	     -9.51783906	     -9.64069600	     -1.87259968	      0.00000000	      0.00000000	     -0.16826189	      0.88467862	     13.03682828	     -0.00000000	     -2.27067203	     -4.78143020	     -0.09941645
      0.07500000	     -0.01203059	      8.54409705	      6.71243497	     -0.50098358	      0.90239501	      0.18485883	     28.07390002	    -17.48957743	    -14.22789197	    -12.60945350	      4.67943712	     -0.00000000	     -0.00000000	     -0.22007648	     -1.41746540	      3.90063121	      0.00000000	    -21.52386936	      6.06146459	     -9.46662429	    -10.43824075	     -2.14486150	      0.00000000	      0.00000000	     -0.18218167	      0.21528369	     13.00900619	     -0.00000000	     -2.50416377	     -4.24741801	     -0.44959797
      0.08000000	      0.35187075	      8.04506494	      6.96420560	     -0.49293962	      0.90280414	      0.18463892	     27.37601408	    -17.04736285	    -14.36662983	    -12.95814211	      4.69483661	      0.00000000	      0.00000000	     -0.22616224	     -2.22262608	      3.31595451	      0.00000000	    -21.77276646	      5.35830284	     -9.53578304	    -11.40434166	     -2.44000600	     -0.00000000	     -0.00000000	     -0.19904331	     -0.44818853	     13.10676425	      0.00000000	     -2.80903410	     -3.66157160	     -1.35922187
      0.08500000	      0.64873783	      7.72175124	      7.13806406	     -0.48493049	      0.90311794	      0.18469843	     26.90546187	    -16.78793443	    -14.45795759	    -13.56893766	      4.70782989	     -0.00000000	     -0.00000000	     -0.23682264	     -2.82886569	      3.10259490	     -0.00000000	    -21.96336176	      4.90333690	     -9.46961464	    -12.33824404	     -2.77465149	      0.00000000	      0.00000000	     -0.21534298	     -1.27241114	     12.93374855	     -0.00000000	     -3.05701668	     -3.09925498	     -1.78664126
      0.09000000	      0.94720380	      7.35157247	      7.29600930	     -0.47696825	      0.90354845	      0.18472505	     26.38268965	    -16.47271568	    -14.46281136	    -14.07124121	      4.77099386	      0.00000000	      0.00000000	     -0.24558949	     -3.60497390	      2.62881367	     -0.00000000	    -22.06144060	      4.40983101	     -9.52012019	    -13.40014041	     -3.13518045	      0.00000000	      0.00000000	     -0.23387657	     -2.15480835	     12.82748188	     -0.00000000	     -3.29284166	     -2.64803565	     -2.51730996
      0.09500000	      1.18017629	      7.06435181	      7.38844889	     -0.46899878	      0.90388538	      0.18490092	     26.05714626	    -16.26854327	    -14.48322500	    -14.80954542	      4.83493396	     -0.00000000	     -0.00000000	     -0.25847533	     -4.21901818	      2.44089892	      0.00000000	    -22.03796607	      4.04684743	     -9.63169528	    -14.54777980	     -3.53216745	      0.00000000	      0.00000000	     -0.25390666	     -3.13154282	     12.66028122	     -0.00000000	     -3.44827382	     -2.24266641	     -3.03521428
      0.10000000	      1.39882335	      6.89184176	      7.66551578	     -0.46104699	      0.90433878	      0.18446467	     25.75166320	    -16.43190319	    -14.82668986	    -15.79953136	      5.03564529	     -0.00000000	     -0.00000000	     -0.27575384	     -4.60500947	      2.68099068	      0.00000000	    -22.00080405	      3.86732101	     -9.37076828	    -15.66320583	     -4.06868104	     -0.00000000	     -0.00000000	     -0.27337451	     -4.29295400	     12.16614490	      0.00000000	     -3.59023658	     -2.15377794	     -4.12868359
      0.10500000	      1.67227543	      6.43676369	      7.52721769	     -0.45317272	      0.90494591	      0.18527474	     25.29810799	    -15.79975622	    -14.41077660	    -16.14435059	      5.07550714	      0.00000000	      0.00000000	     -0.28177207	     -5.49469841	      1.77135783	      0.00000000	    -21.83531325	      3.31497719	     -9.86969469	    -17.05534356	     -4.37357146	     -0.00000000	     -0.00000000	     -0.29767190	     -5.38674534	     12.02053633	      0.00000000	     -3.77672304	     -1.34214274	     -4.02703437
      0.11000000	      1.88601558	      6.11064696	      7.52377667	     -0.44522601	      0.90548610	      0.18559408	     24.99703345	    -15.54505808	    -14.36288203	    -16.88911227	      5.19611126	     -0.00000000	     -0.00000000	     -0.29477062	     -5.99095096	      1.56812688	      0.00000000	    -21.59637188	      2.94408291	    -10.13596305	    -18.46504192	     -4.78592024	      0.00000000	      0.00000000	     -0.32227578	     -6.61553510	     11.67348724	     -0.00000000	     -3.87109091	     -0.95683064	     -4.56087302
      0.11500000	      2.12842650	      5.76589536	      7.53154800	     -0.43737227	      0.90615183	      0.18590621	     24.63163607	    -15.27574038	    -14.30430431	    -17.57688690	      5.36908230	     -0.00000000	     -0.00000000	     -0.30677455	     -6.46889318	      1.21661605	     -0.00000000	    -21.29367665	      2.54056591	    -10.45690041	    -19.99638842	     -5.22190164	     -0.00000000	     -0.00000000	     -0.34900282	     -7.92057655	     11.29716382	     -0.00000000	     -4.01454548	     -0.48335350	     -4.99244736
      0.12000000	      2.39293595	      5.27685530	      7.52827406	     -0.42945758	      0.90688918	      0.18616185	     24.20007824	    -14.82902242	    -14.32329142	    -18.20305498	      5.51195059	      0.00000000	      0.00000000	     -0.31770324	     -6.86335794	      0.89772759	     -0.00000000	    -20.89275878	      1.94272473	    -10.99439043	    -21.70934998	     -5.65037415	     -0.00000000	     -0.00000000	     -0.37889964	     -9.20994012	     11.04414952	      0.00000000	     -4.13611561	      0.11302491	     -5.54824551
      0.12500000	      2.52241990	      4.98921686	      7.37449572	     -0.42163860	      0.90738829	      0.18686260	     24.02087951	    -14.53856178	    -13.96916626	    -18.92427020	      5.73009496	      0.00000000	      0.00000000	     -0.33029082	     -7.14055804	      0.38126848	     -0.00000000	    -20.31577808	      1.60999391	    -11.56809818	    -23.47891448	     -6.08271279	      0.00000000	      0.00000000	     -0.40978436	    -10.65560487	     10.57214733	      0.00000000	     -4.14067953	      0.47015127	     -5.80321410
